<svg enable-background="new 0 0 750 500" viewBox="0 0 750 500" xmlns="http://www.w3.org/2000/svg"><path d="m666.95 150.27-9.57 46.35-6.16-6.01-10.48 7.47-8.01-9.94-17.96 13.06-15.35-25.67-17.12 10.03-6.79-9.36-21.74 12.25-6.54-14.01 15.24-73.81 81.7 16.87z" fill="#ebebeb"/><path d="m644.17 117.5 22.78 32.77-28.34-5.85z" fill="#dbdbdb"/><path d="m655.34 205.88-14.03 68-110.05-22.72 13.93-67.45 6.54 14 21.75-12.25 6.78 9.36 17.13-10.02 15.34 25.67 17.97-13.06 8 9.94 10.49-7.47z" fill="#ebebeb"/><path d="m497.83 197.91-112.15 6.94-8.91-143.96 83.28-5.16 30.57 25.65z" fill="#ebebeb"/><path d="m460.05 55.73 30.57 25.65-28.88 1.79z" fill="#dbdbdb"/><path d="m428.96 152.6-.43-3.25c-1.13-6.73.71-14.26 6.56-22.13 5.27-6.96 8.13-12.03 7.82-17.68-.36-6.4-4.61-10.44-12.52-10.12-4.52.25-9.45 2.04-12.45 4.6l-3.45-7.73c3.97-3.24 11.01-5.65 17.66-6.02 14.42-.81 21.44 7.73 21.98 17.26.48 8.53-3.94 14.94-9.56 22.43-5.15 6.83-6.85 12.46-6.12 18.84l.31 3.25zm-1.78 17.71c-.26-4.64 2.69-8.08 7.08-8.32 4.39-.25 7.58 2.85 7.84 7.49.25 4.39-2.45 7.94-7.09 8.2-4.38.24-7.58-2.98-7.83-7.37z" fill="#dbdbdb"/><path d="m148.48 128.11-11.28-5.11-1.56 3.46c-.46 1.02-1.46 1.66-2.57 1.71-.62.03-1.23.09-1.84.18-1.1.17-2.2-.28-2.85-1.18l-2.21-3.08-10.08 7.22 2.21 3.08c.65.9.71 2.09.2 3.08-.29.55-.54 1.11-.76 1.69-.4 1.04-1.34 1.78-2.45 1.88l-3.78.37 1.22 12.33 3.79-.38c1.11-.11 2.16.44 2.77 1.38.16.26.33.51.51.76s.36.49.55.73c.69.87.88 2.04.42 3.05l-1.58 3.48 11.29 5.12 1.57-3.46c.46-1.02 1.46-1.66 2.57-1.71.61-.03 1.23-.09 1.84-.18 1.1-.17 2.2.28 2.85 1.18l2.21 3.08 10.08-7.22-2.21-3.08c-.65-.9-.71-2.09-.2-3.08.28-.55.54-1.11.76-1.68.4-1.04 1.34-1.78 2.45-1.89l3.78-.37-1.22-12.33-3.79.37c-1.11.11-2.15-.44-2.76-1.38-.16-.26-.34-.51-.52-.76s-.36-.49-.55-.73c-.7-.87-.88-2.05-.42-3.06zm-6.4 11.41c3.26 4.56 2.22 10.89-2.34 14.16-4.56 3.26-10.9 2.22-14.17-2.33-3.26-4.56-2.22-10.91 2.34-14.17 4.56-3.27 10.9-2.21 14.17 2.34z" fill="#ebebeb"/><path d="m658.38 291.71-7.52 4.34 1.33 2.3c.39.68.35 1.51-.07 2.16-.24.36-.45.74-.65 1.12-.35.69-1.06 1.14-1.83 1.14h-2.66v8.68h2.66c.78 0 1.48.45 1.83 1.14.2.39.41.76.65 1.12.43.65.46 1.49.07 2.16l-1.33 2.3 7.52 4.34 1.33-2.31c.39-.68 1.13-1.05 1.92-1.01.21.01.43.02.64.02s.43-.01.64-.02c.78-.04 1.52.33 1.91 1l1.34 2.32 7.52-4.34-1.33-2.31c-.39-.68-.35-1.51.08-2.16.24-.36.45-.73.65-1.12.35-.69 1.05-1.14 1.83-1.14h2.66v-8.68h-2.66c-.78 0-1.48-.45-1.83-1.14-.2-.39-.41-.76-.65-1.12-.43-.65-.47-1.49-.08-2.16l1.33-2.31-7.52-4.34-1.33 2.31c-.39.68-1.13 1.05-1.91 1.01-.21-.01-.43-.02-.64-.02s-.43.01-.64.02c-.78.04-1.53-.33-1.92-1.01zm3.89 8.3c3.93 0 7.11 3.18 7.11 7.11s-3.18 7.11-7.11 7.11-7.11-3.19-7.11-7.11c0-3.93 3.18-7.11 7.11-7.11z" fill="#ebebeb"/><path d="m171.3 91.16-6.9 5.27 1.62 2.11c.48.62.55 1.45.21 2.16-.19.39-.35.79-.5 1.2-.26.73-.9 1.27-1.67 1.37l-2.64.34 1.12 8.61 2.64-.34c.77-.1 1.53.25 1.97.9.25.36.51.7.79 1.03.51.59.65 1.41.35 2.14l-1.02 2.45 8.02 3.33 1.02-2.46c.3-.72.99-1.19 1.77-1.25.21-.02.42-.04.64-.07.21-.03.42-.06.63-.1.77-.14 1.55.13 2.02.75l1.63 2.13 6.9-5.27-1.62-2.12c-.47-.62-.54-1.45-.2-2.16.19-.39.35-.79.5-1.19.26-.73.9-1.27 1.67-1.37l2.64-.34-1.12-8.61-2.64.34c-.77.1-1.53-.25-1.97-.89-.24-.36-.51-.7-.79-1.03-.51-.59-.65-1.41-.35-2.14l1.02-2.46-8.02-3.33-1.02 2.46c-.3.72-.99 1.18-1.76 1.25-.21.02-.43.04-.64.07s-.42.06-.63.1c-.77.14-1.56-.13-2.03-.75zm4.93 7.73c3.89-.51 7.46 2.24 7.97 6.13s-2.24 7.47-6.13 7.97c-3.89.51-7.47-2.24-7.97-6.14-.52-3.88 2.23-7.45 6.13-7.96z" fill="#ebebeb"/><path d="m119.82 316.78c.39-9.68.24-19.37-.4-29.03-1.31-19.93-4.59-39.71-9.1-59.15-2.54-10.95-5.66-21.71-8.91-32.46-.1-.32-.62-.23-.53.11 10.06 37.9 18.32 77 17.75 116.4-.16 11.02-1.44 21.85-2.48 32.81-.03.29.45.41.52.11 2.08-9.39 2.76-19.21 3.15-28.79z" fill="#ebebeb"/><path d="m100.88 196.24s-15.25 38.7-11.83 47.79c3.41 9.1 10.45 11.04 10.45 11.04s-9.33 13.32-2.81 25.81 21 11.9 21.96 26.06c.01 0 .81-59.21-17.77-110.7z" fill="#ebebeb"/><path d="m117 282.49c.02-.06.01-.13-.02-.2-2.14-26.31-6.81-52.54-14.79-77.85-.02-.07-.15-.05-.13.03 3.02 11.32 5.71 22.7 8.01 34.14-1.98-2.04-4.57-3.21-7.28-4.06-.05-.02-.08.06-.03.08 2.82 1.22 5.52 2.63 7.51 5.02.45 2.24.88 4.49 1.3 6.73-3.41-3.81-8.13-5.7-12.86-7.49-.07-.03-.1.08-.04.1 4.92 2 9.83 4.59 13.17 8.83 1.16 6.42 2.18 12.87 3.06 19.33-2.49-2.6-5.56-4.35-9.09-5.21-.11-.03-.17.13-.06.16 3.62 1.04 6.74 3.07 9.22 5.91.02.02.04.03.06.04.31 2.27.59 4.55.86 6.83-1.92-1.64-4.04-2.88-6.37-3.84-.06-.03-.1.07-.03.1 2.37 1.01 4.5 2.46 6.38 4.22.03.02.05.02.08.03.25 2.17.51 4.34.73 6.51-3.5-4.21-7.82-7.26-12.93-9.23-.1-.04-.15.11-.06.16 4.97 2.16 9.35 5.59 12.74 9.81.09.12.21.13.32.1.33 3.33.62 6.67.87 10.01 0 .05.08.05.08 0-.18-3.42-.42-6.84-.7-10.26z" fill="#fff"/><path d="m104.75 230.71c-2.64-1.82-6-2.59-9.16-2.86-.08-.01-.08.11-.01.12 3.28.49 6.04 1.68 9.06 2.96.13.05.22-.14.11-.22z" fill="#fff"/><path d="m106.6 271.68c-2.09-1.26-4.48-1.97-6.88-2.35-.08-.01-.09.12-.01.13 2.43.44 4.59 1.31 6.8 2.39.1.04.18-.12.09-.17z" fill="#fff"/><path d="m159.9 244.67c-6.36 4.47-12.46 9.63-17.65 15.43-5.53 6.18-9.56 13.2-12.38 20.99-5.77 15.96-8.93 33.24-9.22 50.2-.16 9.51.68 18.94 2.72 28.23.07.34.58.24.53-.1-2.49-16.35-2.4-33.03.28-49.34 2.62-16.01 6.73-33.43 16.91-46.44 5.54-7.08 12.45-12.66 19.28-18.42.36-.32-.1-.81-.47-.55z" fill="#ebebeb"/><path d="m122.9 319.75s5.24-8.82 12.86-16.44c7.63-7.62 14.05-13.04 15.04-18.09.99-5.04-7.64-8.76-7.64-8.76s10.55 1.89 13.44-2.53c2.89-4.43 4.28-30.08 4.28-30.08s-19.2 13.71-28.15 32.93c-8.93 19.21-9.83 42.97-9.83 42.97z" fill="#ebebeb"/><path d="m154.25 250.42c-8.08 7.94-16.21 16.39-20.97 26.82-1.63 3.57-3.02 7.28-4.24 11.06 0 .01 0 .01-.01.02-.25.76-.49 1.51-.73 2.28-.02.04-.04.08-.04.12-2.35 7.79-4.01 15.84-5.45 23.7-.01.05.07.08.08.03.83-4 1.74-8.04 2.76-12.07.04 0 .07-.01.11-.02 1.63-.69 3.28-1.12 5.04-1.28.11-.01.11-.21-.01-.2-1.7.08-3.37.38-4.98.91.93-3.63 1.94-7.26 3.08-10.83 3.71-.91 7.58-1.4 11.39-1.49.04 0 .05-.06.01-.06-3.84-.18-7.45.15-11.2.95.2-.61.4-1.22.61-1.83 2.5-.57 5.02-1.05 7.58-1.28.05 0 .04-.08 0-.08-2.51.07-4.98.33-7.42.9 1.04-3.09 2.17-6.14 3.43-9.11 1.04-2.46 2.27-4.79 3.63-7.04 2.05-.46 4.04-.91 6.15-1.1.06-.01.05-.1-.01-.1-1.91-.12-3.9.02-5.75.57 1.01-1.63 2.07-3.23 3.21-4.78 4.31-.95 8.67-1.84 13.07-1.01.08.01.1-.11.03-.13-4.19-1.1-8.35-.47-12.53.36.46-.61.92-1.2 1.39-1.8 2.64-.82 5.27-1.21 8.05-1.26.06 0 .07-.08.01-.09-2.53-.24-5.06 0-7.5.67 3.56-4.42 7.49-8.58 11.38-12.69.16-.22.02-.33-.17-.14z" fill="#fff"/><path d="m154.03 267.91c-1.26-.13-2.55-.28-3.82-.13-.15.02-.14.27.01.27 1.26.04 2.53-.06 3.79.01.11 0 .12-.14.02-.15z" fill="#fff"/><path d="m140.21 292.8c-2.02-.02-4.03.52-5.92 1.19-.05.02-.02.1.03.08 1.95-.47 3.93-.65 5.91-.98.16-.03.15-.29-.02-.29z" fill="#fff"/><path d="m136.07 284.2c-.82-.04-1.71.1-2.51.23-.08.01-.08.15.01.15.82.01 1.71.04 2.52-.12.14-.03.13-.25-.02-.26z" fill="#fff"/><path d="m66.61 271.89c6.18 2.15 12.31 4.91 17.85 8.4 5.9 3.73 10.79 8.47 14.87 14.12 8.36 11.58 14.91 24.84 19.06 38.49 2.33 7.66 3.82 15.48 4.33 23.47.02.29-.41.33-.45.04-1.77-13.8-5.7-27.28-11.63-39.87-5.82-12.35-13.18-25.49-24.42-33.67-6.12-4.45-13-7.37-19.86-10.45-.36-.14-.11-.65.25-.53z" fill="#ebebeb"/><path d="m113.91 324.1s-6.28-5.93-14.21-10.33c-7.93-4.41-14.39-7.31-16.35-11.16-1.97-3.85 4.16-8.85 4.16-8.85s-8.1 3.97-11.46 1.06c-3.36-2.92-10.42-23.36-10.42-23.36s18.71 6.66 30.39 20.14c11.67 13.48 17.89 32.5 17.89 32.5z" fill="#ebebeb"/><path d="m112.93 319.89c-9.36-17.56-21.84-33.45-38.95-43.94-.01 0-.02.01-.01.01 4.5 2.87 8.65 6.18 12.52 9.8-3.46-.1-6.99.46-10.06 2.12-.07.04-.02.13.05.11 3.42-1.16 6.71-1.92 10.35-1.75.05 0 .08-.02.12-.04.61.58 1.21 1.16 1.8 1.75-1.8.08-3.62.33-5.37.71-.05.01-.03.08.01.07 1.9-.37 3.75-.49 5.68-.47 3.14 3.15 6.06 6.52 8.82 10.02-1.25-.18-2.56-.08-3.76.27-.09.03-.07.15.03.14 1.36-.17 2.66-.15 4.01-.06.51.65 1.03 1.3 1.53 1.96-3.85-.23-7.62.14-11.35 1.1-.06.01-.04.1.02.09 3.86-.76 7.74-1 11.66-.76.48.63.93 1.28 1.4 1.92-2.3-.07-4.52.22-6.76.77-.09.02-.06.15.03.14 2.3-.52 4.64-.66 7-.55 2.01 2.77 3.94 5.61 5.79 8.48-.98-.2-2.01-.09-2.97.18-.05.01-.04.09.02.08 1.1-.13 2.13.01 3.21.15 1.67 2.59 3.28 5.21 4.82 7.85.13.25.49.08.36-.15z" fill="#fff"/><path d="m98.38 305.32c-1.83-.16-3.69.13-5.44.66-.05.02-.04.09.02.08 1.8-.33 3.58-.46 5.4-.55.13 0 .15-.18.02-.19z" fill="#fff"/><path d="m82.06 283.92c-.83-.09-1.69.01-2.51.15-.1.02-.07.16.03.15.82-.09 1.64-.06 2.46-.08.14-.01.16-.21.02-.22z" fill="#fff"/><path d="m138.04 382.18h-42.23l6.02-44.11 1.54-11.31h27.11l1.54 11.31z" fill="#dbdbdb"/><path d="m132.02 338.07h-30.19l1.54-11.31h27.11z" fill="#c7c7c7"/><path d="m99.49 322.84h34.86v9.58h-34.86z" fill="#dbdbdb"/><path d="m68.96 382.18 76.01-.24 76.01-.09 152.02-.17 152.02.17 76.01.09 76.01.24-76.01.25-76.01.08-152.02.17-152.02-.17-76.01-.09z" fill="#263238"/><ellipse cx="375" cy="425.29" fill="#ebebeb" rx="286.74" ry="31.42"/><path d="m308.25 420.09c-2.33.79-69.14 1.02-71.7-.58-.97-.6-1.57-10.33-1.97-22.11-.09-2.54-.16-5.17-.22-7.84l-5.42-35.64 44.66-.29 4.22 35.64-.17 7.84s25.62 11.35 28.23 13.41c2.61 2.07 4.7 8.78 2.37 9.57z" fill="#eb9481"/><path d="m308.25 420.09c-2.33.79-69.14 1.02-71.7-.58-1.18-.74-1.82-14.95-2.18-29.94l43.46-.28-.17 7.84s25.62 11.35 28.23 13.41c2.6 2.05 4.69 8.76 2.36 9.55z" fill="#fff"/><path d="m308.25 420.09c-2.33.79-69.14 1.02-71.7-.58-.97-.6-1.57-10.33-1.97-22.11l43.08-.28s25.62 11.35 28.23 13.41c2.6 2.06 4.69 8.77 2.36 9.56z" fill="#a6a6a6"/><path d="m307.28 417.42c-11.2-.24-56.4-.13-67.49.49-.09 0-.09.07 0 .07 11.1.48 56.29 0 67.49-.38.24-.01.24-.18 0-.18z" fill="#263238"/><path d="m301.59 408.15c-2.66-.1-5.25 1.17-6.69 2.76-1.39 1.52-2.57 3.67-2.48 5.99 0 .07.13.07.14 0 .62-4.39 4.6-8.25 9.04-8.61.08-.01.08-.14-.01-.14z" fill="#263238"/><path d="m282.01 398.23c-4.48-.05-9.67 1.55-12.45 5.23-.11.14.1.29.23.22 4.05-2.1 7.89-3.67 12.3-4.9.31-.09.24-.55-.08-.55z" fill="#263238"/><path d="m285.48 399.56c-4.48-.05-9.67 1.55-12.45 5.23-.11.14.1.29.23.22 4.05-2.1 7.89-3.67 12.3-4.9.31-.08.24-.54-.08-.55z" fill="#263238"/><path d="m288.94 400.9c-4.48-.05-9.67 1.55-12.45 5.23-.11.14.1.29.23.22 4.05-2.1 7.89-3.67 12.3-4.9.31-.09.24-.55-.08-.55z" fill="#263238"/><path d="m292.41 402.24c-4.48-.05-9.67 1.55-12.45 5.23-.11.14.1.29.23.22 4.04-2.1 7.89-3.67 12.3-4.9.31-.09.24-.55-.08-.55z" fill="#263238"/><path d="m242.61 407.26c-5.03.03-4.99 7.85.05 7.82 5.03-.04 4.99-7.85-.05-7.82z" fill="#263238"/><path d="m286.81 386.25c-2.28-1.87-5.13-.02-6.52 1.93-2.26 3.17-3.8 7.61-4.03 11.48-.01.1.07.13.14.13.1.32.48.59.81.36 3.18-2.22 6.86-4.2 9.27-7.33 1.4-1.83 2.49-4.8.33-6.57zm-5.46 9.54c-1.54 1.13-3.12 2.18-4.62 3.36.79-2.24 1.48-4.5 2.5-6.65.49-1.03 1-2.08 1.63-3.03.97-1.48 5.36-5.25 5.82-.37.25 2.69-3.5 5.35-5.33 6.69z" fill="#263238"/><path d="m265.13 401.36c3.91.59 7.93-.54 11.76-1.15.4-.06.49-.52.33-.82.06-.05.08-.12.01-.19-2.85-2.62-7.04-4.75-10.86-5.48-2.36-.45-5.7.2-6.04 3.13-.32 2.77 2.52 4.17 4.8 4.51zm-2.72-2.54c-3.05-3.83 2.72-4.16 4.45-3.77 1.11.26 2.21.65 3.27 1.06 2.23.85 4.29 2 6.42 3.06-1.9.18-3.77.53-5.66.78-2.26.3-6.8.98-8.48-1.13z" fill="#263238"/><path d="m163.32 189.2s51.87 88.24 53.26 94.44c2.13 9.52 13.45 103.53 13.45 103.53l53.97-.97s-9.3-82.89-18.11-110.2c-6.35-19.67-52.12-84.91-52.12-84.91z" fill="#37474f"/><path d="m279.09 377.93c-7.75-.06-35.22-.37-45.53.6-.08.01-.08.14 0 .15 3.55.51 37.79-.28 45.53-.53.15-.01.14-.22 0-.22z" fill="#263238"/><path d="m172.17 197.3c3.4 5.33 6.99 10.55 10.46 15.84 3.48 5.29 6.94 10.58 10.36 15.91 6.83 10.64 13.49 21.39 20.02 32.21 3.06 5.07 5.98 10.2 8.09 15.73 2.08 5.48 3.5 11.19 4.55 16.94 1.06 5.79 1.75 11.64 2.41 17.49.7 6.23 1.39 12.45 2.09 18.68 1.42 12.74 2.84 25.48 4.27 38.22.17 1.56.35 3.13.5 4.69.02.23-.39.27-.42.04-1.59-12.66-2.91-25.35-4.35-38.03-.72-6.31-1.44-12.62-2.15-18.93-.67-5.87-1.3-11.74-2.21-17.58-.89-5.73-2.06-11.44-3.8-16.99-1.82-5.8-4.41-11.24-7.46-16.51-6.25-10.79-12.87-21.39-19.49-31.97-6.68-10.67-13.41-21.3-20.4-31.78-.86-1.29-1.73-2.58-2.63-3.85-.08-.12.1-.21.16-.11z" fill="#263238"/><path d="m180.32 425.29c-2.46-.15-66-25.89-67.77-28.33-.06-.08-.09-.24-.1-.47.01-2.18 4.41-9.83 8.09-19.87.23-.64 1.87-3.62 4.15-7.64 6.26-11.03 17.33-29.92 17.33-29.92l41.53 16.5-19.88 29.76-3.09 7.2s19.49 20.14 21.14 23.03c1.63 2.88 1.05 9.88-1.4 9.74z" fill="#eb9481"/><path d="m180.32 425.29c-2.46-.15-66-25.89-67.77-28.33-.06-.08-.09-.24-.1-.47.01-2.18 4.41-9.83 8.09-19.87.23-.64 1.87-3.62 4.15-7.64l38.98 16.33-3.09 7.2s19.49 20.14 21.14 23.03c1.63 2.89 1.05 9.89-1.4 9.75z" fill="#fff"/><path d="m180.32 425.29c-2.46-.14-65.99-25.89-67.76-28.33-.67-.92 2.17-9.6 7.99-20.33l40.03 15.9s19.49 20.13 21.14 23.02c1.63 2.88 1.05 9.88-1.4 9.74z" fill="#a6a6a6"/><path d="m180.42 422.45c-10.29-4.42-52.23-21.28-62.74-24.86-.09-.03-.11.03-.03.07 10.11 4.6 52.18 21.12 62.7 24.97.23.07.29-.09.07-.18z" fill="#263238"/><path d="m178.62 411.72c-2.43-1.09-5.3-.88-7.24.05-1.86.89-3.76 2.43-4.55 4.62-.02.06.09.11.13.05 2.22-3.83 7.36-5.92 11.61-4.59.09.03.13-.09.05-.13z" fill="#263238"/><path d="m164.19 395.18c-4.14-1.73-9.55-2.19-13.5.18-.15.09-.02.31.13.29 4.54-.43 8.69-.44 13.24.07.32.04.43-.42.13-.54z" fill="#263238"/><path d="m166.9 397.72c-4.14-1.73-9.55-2.19-13.5.18-.15.09-.02.31.13.29 4.54-.43 8.69-.44 13.24.07.32.03.43-.42.13-.54z" fill="#263238"/><path d="m169.62 400.26c-4.14-1.72-9.55-2.19-13.5.18-.15.09-.02.31.13.29 4.54-.43 8.69-.44 13.24.07.31.03.42-.42.13-.54z" fill="#263238"/><path d="m172.33 402.8c-4.14-1.73-9.55-2.19-13.5.18-.15.09-.02.31.13.29 4.54-.43 8.69-.44 13.24.07.31.03.42-.42.13-.54z" fill="#263238"/><path d="m124.28 388.77c-4.67-1.86-7.57 5.4-2.89 7.26s7.57-5.4 2.89-7.26z" fill="#263238"/><path d="m173.14 385.88c-1.41-2.59-4.74-1.95-6.77-.65-3.28 2.09-6.37 5.63-8.04 9.13-.04.09.01.15.08.17-.03.33.22.73.61.64 3.78-.86 7.94-1.32 11.34-3.31 1.99-1.18 4.11-3.53 2.78-5.98zm-8.65 6.79c-1.85.47-3.71.85-5.55 1.38 1.57-1.78 3.06-3.61 4.82-5.23.84-.77 1.71-1.55 2.64-2.2 1.45-1.01 6.93-2.85 5.53 1.84-.76 2.6-5.23 3.65-7.44 4.21z" fill="#263238"/><path d="m147.37 391.75c3.4 2.01 7.55 2.47 11.33 3.35.39.09.65-.3.62-.63.07-.02.12-.08.08-.17-1.66-3.5-4.74-7.05-8.02-9.15-2.02-1.3-5.36-1.95-6.77.63-1.34 2.44.77 4.8 2.76 5.97zm-1.56-3.38c-1.39-4.7 4.09-2.84 5.54-1.82.93.65 1.8 1.43 2.64 2.21 1.75 1.62 3.23 3.46 4.8 5.24-1.83-.54-3.69-.92-5.54-1.4-2.21-.57-6.68-1.64-7.44-4.23z" fill="#263238"/><path d="m166.88 383.66-46.49-18.77s57.64-84.74 58.06-91.05c.38-5.59-24.94-54.21-25.94-68.38-1.08-15.29 6.29-27.13 14.38-34.47l47.96 20.38s-5.06 8.1-13.03 12.6c0 0 24.59 56.2 23.2 73.48-1.41 17.38-58.14 106.21-58.14 106.21z" fill="#37474f"/><path d="m168.94 374.82c-6.72-2.89-4.75-2.16-11.51-4.97-3.31-1.38-25.03-10.41-28.34-11.15-.07-.02-.12.1-.06.14 2.89 1.77 24.77 10.42 28.11 11.74 6.81 2.68 4.88 1.84 11.72 4.45.13.03.21-.16.08-.21z" fill="#263238"/><path d="m209.71 202.94c-5 1.07-9.9 2.84-14.61 4.74-.18.07-.1.35.1.29 4.9-1.43 9.89-2.77 14.7-4.46.38-.13.19-.65-.19-.57z" fill="#263238"/><path d="m204.02 200.97c-.47.82-.87 1.69-1.23 2.57-.28.68-.63 1.41-.63 2.15 0 .14.19.18.28.09.56-.55.85-1.35 1.2-2.03.41-.79.83-1.58 1.22-2.38.26-.53-.55-.91-.84-.4z" fill="#263238"/><path d="m204.6 196.46c.29-.74.59-1.47.9-2.21.32-.76.69-1.5.96-2.28.04-.12.24-.04.19.08-.29.74-.48 1.53-.72 2.29s-.48 1.52-.74 2.28c-.47 1.41-1.04 2.81-1.65 4.17.78-.01 1.59-.04 2.3-.4.77-.39 1.24-1.21 1.62-1.95.42-.83.81-1.67 1.25-2.49.48-.91 1.01-1.8 1.33-2.78.04-.12.23-.04.19.08-.72 2.02-1.43 4.05-2.56 5.91-.44.73-.8 1.5-1.61 1.78-.87.31-1.83.25-2.74.18-.11.03-.26-.04-.22-.18.44-1.49.92-3.02 1.5-4.48z" fill="#263238"/><path d="m202.56 205.8c1.7 3.61 3.2 7.21 4.8 10.81 1.56 3.52 3.01 7.08 4.43 10.65 2.86 7.23 5.42 14.59 7.67 22.03 1.11 3.68 2.14 7.39 3.06 11.12.93 3.74 1.83 7.52 2.22 11.37.39 3.86.11 7.67-.96 11.4-1.09 3.78-2.53 7.09-4.23 10.63-1.04 2.16-1.4 1.87-.9.78 1.43-3.1 5.18-12.49 4.91-20.38-.13-3.81-.91-7.56-1.77-11.26-.88-3.78-1.87-7.53-2.95-11.25-2.13-7.34-4.66-14.53-7.26-21.71-1.46-4.02-3.02-8-4.5-12.02-1.49-4.04-3.03-7.68-4.68-12.1-.06-.11.11-.18.16-.07z" fill="#263238"/><path d="m167.27 193.87c.83-.31 1.99.2 2.84.34 1.09.18 2.19.29 3.29.33 1.09.04 2.18-.01 3.27-.11 1.08-.1 2.19-.24 3.13-.83 1.59-.99 2.91-2.73 3.99-4.24 1.18-1.65 2.41-3.55 3.11-5.46.04-.12.21-.04.18.08-.35 1.11-.61 2.24-1.06 3.33-.42 1.02-.96 2-1.53 2.95-1.07 1.76-2.3 3.65-4.14 4.7-1.93 1.1-4.41 1.03-6.57.91-1.24-.07-2.48-.24-3.7-.49-.88-.19-2.36-.33-2.92-1.1-.11-.14-.05-.35.11-.41z" fill="#263238"/><path d="m133.66 356.03c7.64-11.56 15.14-23.22 22.5-34.96 7.38-11.77 14.63-23.63 21.78-35.55 1.71-2.85 3.68-5.7 4.78-8.86 1.2-3.43.52-6.76-.57-10.12-1.99-6.16-4.46-12.15-7.14-18.04-2.68-5.91-5.57-11.72-8.41-17.55-2.82-5.78-5.81-11.59-7.95-17.67-2.04-5.81-2.82-11.83-1.25-17.85 1.55-5.98 4.91-11.34 8.42-16.35.93-1.32 1.87-2.63 2.8-3.95.07-.1.22.02.15.12-3.87 5.22-7.64 10.75-9.91 16.88-1.12 3.03-1.85 6.22-1.92 9.45-.07 3.28.54 6.54 1.51 9.67 1.88 6.08 4.85 11.84 7.62 17.55 2.83 5.84 5.73 11.64 8.46 17.53 2.74 5.92 5.31 11.94 7.42 18.12.94 2.75 1.99 5.63 1.92 8.58-.07 3.23-1.61 6.14-3.21 8.86-6.95 11.86-14.17 23.56-21.47 35.2-7.33 11.68-14.81 23.28-22.41 34.79-.96 1.45-1.92 2.9-2.88 4.35-.1.19-.36-.02-.24-.2z" fill="#263238"/><path d="m217.51 137.47c4.33 9.5 26.19 22.59 36.43 24 7.37 1.01 29.74 1.36 37.41.19 8.99-1.37 2.12-25.63-3.19-25.01-14.6 1.71-27 3.61-30.89 3.61-4.76 0-30.51-8.27-33.62-9.43-7.59-2.85-8.59 1.25-6.14 6.64z" fill="#eb9481"/><path d="m217.65 139.98c5.48 8.11 23.7 21.37 23.7 21.37l2.53-5.6 8.37-18.51s-16.73-5.28-27.74-7.63c-1.49-.32-2.8-.51-3.94-.56-7.04-.39-7.65 3.96-2.92 10.93z" fill="#ffc727"/><path d="m217.65 139.98c5.48 8.11 23.7 21.37 23.7 21.37l2.53-5.6c-6.79-7.89-17.28-19.84-23.31-26.71-7.04-.38-7.65 3.97-2.92 10.94z" fill="#263238"/><path d="m238.06 157.61c1.39-3.4 7.57-17.13 9.11-20.01.11-.2.26-.18.17.04-3.92 10.29-7.62 16.75-9.15 20.02-.03.07-.17.03-.13-.05z" fill="#263238"/><path d="m285.49 136.91c8.89-1.17 19.88-3.16 29.18.79 1.83.77 2.49 2.14 2.49 2.14 4.2 1.7 4.66 4.19 4.66 4.19 3.43 2.78 3.55 5.4 3.55 5.4s4.91 2.05 4.17 5.22c-.82 3.56-7.56-.01-12.47.29-11.24.69-27.03 4.82-30.25 5.35z" fill="#eb9481"/><path d="m304.78 147.39c3.31-.14 6.56-.36 9.88-.05 3.64.34 7.08 1.28 10.6 2.15.11.03.16-.12.05-.17-6.14-2.58-14.01-3.26-20.54-2.08-.15.03-.15.16.01.15z" fill="#263238"/><path d="m303.38 140.67c3.23.04 8.91.16 18.41 3.47.03.01.06-.04.03-.05-5.88-2.97-11.91-4.03-18.43-3.57-.21.01-.23.14-.01.15z" fill="#263238"/><path d="m302.69 137.04c5.49.28 8.92 1.16 14.44 2.82.03.01.06-.04.02-.06-6.08-2.55-8.57-2.78-14.48-2.95-.2-.01-.19.18.02.19z" fill="#263238"/><path d="m303.58 156.64c-1.43.67-1.09 1.42 1.65 2.06 2.76.65 14.08.82 13.68 4.77-.39 3.97-16.41 3.46-20.88 2.06-4.47-1.39-11.21-5.24-11.21-5.24 3.14-.53 10.62-2.54 16.76-3.65z" fill="#eb9481"/><path d="m229.4 152.61c-.07 1.71-.24 3.45-.48 5.17.02-.06.05-.12.07-.18.33-.9.66-1.82 1.06-2.69.02-.05.1-.03.09.02-.18.94-.51 1.89-.87 2.78-.17.43-.35.85-.53 1.27-.12.77-.26 1.53-.42 2.28-.3 1.43-1.65 7.51-1.95 8.54-.06.22-.32.17-.31-.07.07-1.12 1.21-7.46 1.44-8.89.44-2.75 1.05-5.56 1.78-8.25.03-.07.13-.03.12.02z" fill="#263238"/><path d="m218.98 198.08c-2.67 1.38-6.11 3.51-21.61.45-.97-.2-1.94-.43-2.92-.73-14.53-4.37-31.97-21.46-32.95-22.66 0 0 23.08-37.43 52.61-49.2 3.65-1.45 9.69 1.35 13.04 4.84 1.19 1.25 3.79 10.43 2.79 17.87s-8.28 48.06-10.96 49.43z" fill="#ffc727"/><g fill="#fff"><path d="m216.92 148.32c.08.8.02 1.59-.08 2.37-.12.78-.27 1.55-.57 2.3-.09-.8-.02-1.59.08-2.37.11-.78.26-1.55.57-2.3z"/><path d="m206.85 173.81c.08.8.02 1.59-.08 2.37-.12.78-.27 1.55-.57 2.3-.09-.8-.02-1.59.08-2.37.12-.78.27-1.55.57-2.3z"/><path d="m189.74 154.54c.08.8.02 1.59-.08 2.37-.12.78-.27 1.55-.57 2.3-.09-.8-.02-1.59.08-2.37.11-.78.27-1.55.57-2.3z"/><path d="m223.51 172.51c.08.8.02 1.59-.08 2.37-.12.78-.27 1.55-.57 2.3-.09-.8-.02-1.59.08-2.37.12-.78.27-1.55.57-2.3z"/><path d="m201.54 151.24c.8-.08 1.59-.02 2.37.08.78.12 1.55.27 2.3.57-.8.09-1.59.02-2.37-.08-.78-.12-1.55-.27-2.3-.57z"/><path d="m182.12 169.65c.8-.08 1.59-.02 2.37.08.78.12 1.55.27 2.3.57-.8.09-1.59.02-2.37-.08-.78-.11-1.55-.27-2.3-.57z"/><path d="m204.96 189.58c.8-.08 1.59-.02 2.37.08.78.12 1.55.27 2.3.57-.8.09-1.59.02-2.37-.08-.78-.11-1.55-.26-2.3-.57z"/><path d="m176.13 182.34c.8-.08 1.59-.02 2.37.08.78.12 1.55.27 2.3.57-.8.09-1.59.02-2.37-.08-.78-.11-1.55-.27-2.3-.57z"/><path d="m216.77 130.4c.8-.08 1.59-.02 2.37.08.78.12 1.55.27 2.3.57-.8.09-1.59.02-2.37-.08-.78-.11-1.55-.27-2.3-.57z"/><path d="m211.12 136.78c-.51.63-1.11 1.14-1.73 1.62-.63.47-1.28.9-2.03 1.22.51-.63 1.11-1.14 1.73-1.62.64-.46 1.29-.9 2.03-1.22z"/><path d="m180.33 154.91c-.51.63-1.11 1.14-1.73 1.62-.63.47-1.28.9-2.03 1.22.51-.63 1.11-1.14 1.73-1.62.63-.47 1.29-.91 2.03-1.22z"/><path d="m218.78 163.09c-.51.63-1.11 1.14-1.73 1.62-.63.47-1.28.9-2.03 1.22.51-.63 1.11-1.14 1.73-1.62.63-.46 1.28-.9 2.03-1.22z"/><path d="m193.88 178.77c-.51.63-1.11 1.14-1.73 1.62-.63.47-1.28.9-2.03 1.22.51-.63 1.11-1.14 1.73-1.62.63-.46 1.28-.9 2.03-1.22z"/><path d="m228.32 141.67c-.51.63-1.11 1.14-1.73 1.62-.63.47-1.28.9-2.03 1.22.51-.63 1.11-1.14 1.73-1.62.63-.47 1.28-.9 2.03-1.22z"/><path d="m227.8 159.84c-.63-.51-1.14-1.11-1.62-1.73-.47-.63-.9-1.28-1.22-2.03.63.51 1.14 1.11 1.62 1.73.46.64.9 1.29 1.22 2.03z"/><path d="m172.3 172.36c-.63-.51-1.14-1.11-1.62-1.73-.47-.63-.9-1.28-1.22-2.03.63.51 1.14 1.11 1.62 1.73.47.63.9 1.28 1.22 2.03z"/><path d="m221.05 187.25c-.63-.51-1.14-1.11-1.62-1.73-.47-.63-.9-1.28-1.22-2.03.63.51 1.14 1.11 1.62 1.73.47.64.9 1.29 1.22 2.03z"/><path d="m196.62 144.8c-.63-.51-1.14-1.11-1.62-1.73-.47-.63-.9-1.28-1.22-2.03.63.51 1.14 1.11 1.62 1.73.46.64.9 1.29 1.22 2.03z"/><path d="m197.05 195.73c-.63-.51-1.14-1.11-1.62-1.73-.47-.63-.9-1.28-1.22-2.03.63.51 1.14 1.11 1.62 1.73.47.64.9 1.29 1.22 2.03z"/><path d="m201.2 165.69c-.63-.51-1.14-1.11-1.62-1.73-.47-.63-.9-1.28-1.22-2.03.63.51 1.14 1.11 1.62 1.73.47.63.91 1.29 1.22 2.03z"/></g><path d="m221.73 140.75c-3.76-.7-7.31-8.49-7.76-13.73-.03-.36 1.76-3.21 3.77-6.78 1.21-2.17 2.51-4.62 3.53-6.93.21-.48 1.44 1.11 1.44 1.11l2.68 2.05 8.85 6.79s-3.58 4.23-5.34 8.28c-.14.34-.25.67-.32 1-.01.05-.02.1-.05.17-.48 1.92-3.17 8.71-6.8 8.04z" fill="#eb9481"/><path d="m228.6 132.53c-.01.05-.02.1-.05.17-.48-.14-.99-.33-1.53-.58-9.69-4.54-5.42-17.53-5.42-17.53l3.79 1.88 8.85 6.79s-3.58 4.23-5.34 8.28c-.13.33-.23.66-.3.99z" fill="#263238"/><path d="m244.42 95.58s4.43 2.81 4.46 7.81-1.96 9.89-2.42 10.06-2.04-17.87-2.04-17.87z" fill="#263238"/><path d="m222.44 98.18c-2.66 5.26-2.53 21.8.8 26.06 4.82 6.18 14.1 8.31 19.71 2.2 5.43-5.92 4.88-27.48 1.03-31.5-5.66-5.92-17.6-4.53-21.54 3.24z" fill="#eb9481"/><path d="m236.56 111.43c-.01-.04-.09.06-.08.1.06 1.13-.06 2.43-1.07 2.83-.03.01-.03.07.01.06 1.24-.2 1.38-1.93 1.14-2.99z" fill="#263238"/><path d="m235.53 110.28c-1.82-.1-1.87 3.55-.19 3.63 1.65.09 1.71-3.55.19-3.63z" fill="#263238"/><path d="m242.73 111.39c.01-.04.09.05.09.1-.05 1.13.07 2.43 1.09 2.82.03.01.03.07-.01.06-1.25-.19-1.4-1.92-1.17-2.98z" fill="#263238"/><path d="m243.76 110.23c1.82-.11 1.9 3.53.22 3.63-1.66.1-1.74-3.54-.22-3.63z" fill="#263238"/><path d="m234.39 107.51c.5-.12.94-.31 1.42-.47.54-.19.99-.28 1.35-.76.19-.26.12-.72-.11-.93-.54-.49-1.26-.43-1.92-.23-.72.22-1.22.57-1.64 1.19-.4.59.24 1.35.9 1.2z" fill="#263238"/><path d="m245.02 109.12c-.5-.09-.95-.26-1.44-.4-.55-.16-1.01-.23-1.39-.69-.21-.25-.16-.71.06-.94.51-.52 1.23-.49 1.91-.33.73.18 1.24.5 1.7 1.1.43.59-.18 1.38-.84 1.26z" fill="#263238"/><path d="m233.99 122.12c.27.27.53.64.94.68.39.04.85-.13 1.22-.26.04-.01.07.03.05.06-.3.43-.92.69-1.44.59-.51-.1-.75-.54-.87-1.01-.02-.08.07-.1.1-.06z" fill="#263238"/><path d="m240.54 117.3s.05 1.69-.04 2.47c-.01.07-2.22-.36-4.6.16-.36.08-.32-.21.09-.4.83-.38 1.87-.74 3.91-.52.08-.21-.12-2.6 0-2.59.43.01 1.25.39 1.74.6 0-3.52-.56-7.01-.51-10.51 0-.12.19-.14.21-.03.85 3.62.93 7.67 1.03 11.3.02.45-1.53-.32-1.83-.48z" fill="#263238"/><path d="m238.29 119.17s-.79 1.98-2.1 2.51c-1.51.61-2.03-.76-.49-1.97.82-.63 2.59-.54 2.59-.54z" fill="#263238"/><path d="m236.72 121.37c-.17.13-.34.24-.53.31-1.39.56-1.94-.55-.82-1.67.76.06 1.59.34 1.35 1.36z" fill="#ff99ba"/><path d="m221.68 112.33c1.83.56 3.93-4.94 4.53-7.05.52-1.86 1.13-7.77 1.22-8.18.09-.4 7.97 5.23 12.58 3.88s7.69-5.48 7.75-7.41-5.66-6.83-10.61-7.08-11.65 6.04-11.65 6.04 2.28-2.72 2.2-2.94-3.28 1.06-3.87 3.33c0 0 .63-2.86.39-2.91s-2.73 2.4-2.17 4.25c0 0-2.88 2.49-3.14 5.22-.27 2.74.62 12.19 2.77 12.85z" fill="#263238"/><path d="m243.28 100.02c-1.4.64-2.81 1.35-4.35 1.56-1.67.22-3.41-.2-4.97-.8-1.59-.61-3.04-1.5-4.36-2.58-1.15-.95-2.18-2.09-3.41-2.94-.31-.21-.66.23-.48.52 1.87 2.8 5.18 5.15 8.36 6.16 3.35 1.06 6.51.32 9.22-1.88.02-.01.01-.05-.01-.04z" fill="#263238"/><path d="m223.59 111.84s-2.84-5.76-5.4-4.83-.98 8.9 1.63 10.35c2.61 1.46 4.01-.93 4.01-.93z" fill="#eb9481"/><path d="m218.7 109.28c-.04-.01-.06.05-.03.07 1.82 1.09 2.57 3.05 3 5.02-.47-.81-1.19-1.32-2.26-.78-.06.03-.02.12.04.11.82-.05 1.38.18 1.81.9.31.51.48 1.12.68 1.68.06.19.39.14.36-.07 0-.02-.01-.03-.01-.05.43-2.45-.97-6.22-3.59-6.88z" fill="#263238"/><path d="m204.84 137.56c-1.96 11.33 10.28 49.5 18.15 56.63 11.71 10.6 33.36 17.57 41.21 19.84 3.42.99 12.88-23.07 9.42-24.66-7.41-3.39-30.43-10.57-32.6-12.42-2.17-1.84-15.4-20.88-21.28-31.85-7.88-14.73-13.91-13.27-14.9-7.54z" fill="#eb9481"/><path d="m267.79 187.25s10.21 2.6 16.81 4.62c3.68 1.12 9.82 3.62 12.15 5.68 3.48 3.09 16.06 18.21 12.46 21.34-3.26 2.83-12.42-11.54-12.42-11.54s10.52 13.68 5.97 16.37-12.74-14.92-12.74-14.92 10.5 14.3 5.36 16.33c-3.88 1.53-12.2-14-12.2-14s8.94 12.35 5.02 14.1c-4.33 1.93-12.91-11.92-12.91-11.92-10.72 2.77-16.95-.3-21.13-3.01-1.01-.64 13.63-23.05 13.63-23.05z" fill="#eb9481"/><path d="m293.45 202.39c1.29 1.56 2.61 3.14 3.77 4.81 1.15 1.67 2.24 3.39 3.23 5.16 2.43 4.35 3.27 7.45 3.2 7.26-1.72-4.4-5.75-10.45-6.9-12.12s-2.21-3.4-3.36-5.07c-.03-.04.03-.08.06-.04z" fill="#263238"/><path d="m287.34 206.44c2.22 1.76 6.87 8.31 8.67 12.69.08.18-.02.17-.13 0-1.41-2.17-7.08-10.57-8.59-12.66-.03-.03.02-.06.05-.03z" fill="#263238"/><path d="m281.47 208.97c2.57 2.54 4.72 6.01 6.42 10.02.08.18-.07.15-.17-.02-2.07-3.37-3.67-6.03-6.35-9.92-.05-.05.04-.14.1-.08z" fill="#263238"/><path d="m215.97 138.39c-9.13-12.91-14.59-8.13-12.76 5.89 1.71 13.11 6.31 28.73 6.31 28.73l23.04-11.16s-10.75-15.19-16.59-23.46z" fill="#ffc727"/><path d="m221.55 143.47c.33.74.5 1.5.65 2.28.13.77.22 1.56.16 2.36-.33-.74-.51-1.5-.65-2.28-.13-.77-.22-1.56-.16-2.36z" fill="#fff"/><path d="m207.92 151.32c.74-.33 1.51-.5 2.28-.65.77-.13 1.56-.22 2.36-.16-.74.33-1.5.51-2.28.65-.78.13-1.56.22-2.36.16z" fill="#fff"/><path d="m208.51 131.24c-.29.75-.71 1.42-1.15 2.07-.46.64-.95 1.25-1.56 1.78.29-.75.71-1.42 1.15-2.07.46-.64.95-1.25 1.56-1.78z" fill="#fff"/><path d="m227.95 157.35c-.29.75-.71 1.42-1.15 2.07-.46.64-.95 1.25-1.56 1.78.29-.75.71-1.42 1.15-2.07.46-.63.95-1.25 1.56-1.78z" fill="#fff"/><path d="m212.01 165.18c-.75-.29-1.42-.71-2.07-1.15-.64-.46-1.25-.95-1.78-1.56.75.29 1.42.71 2.07 1.15.64.46 1.25.95 1.78 1.56z" fill="#fff"/><path d="m219.03 142.28c1.23 1.69 2.5 3.34 3.76 5-.32-.84-.6-1.68-.85-2.55-.01-.04.05-.06.06-.02.26.66.54 1.32.79 1.98.12.32.24.64.36.96.03.07.05.14.08.21.99 1.29 1.97 2.59 2.91 3.91 1.13 1.57 2.22 3.18 3.32 4.78 1.13 1.65 2.21 3.59 3.4 5.2.1.14-2.04 1-2.24 1.12-.2.11-.34-.08-.13-.15.2-.06 1.9-1.1 1.92-1.12-1.1-1.61-2.37-3.1-3.52-4.68-1.14-1.57-2.29-3.13-3.4-4.73-2.25-3.24-4.32-6.6-6.55-9.85 0-.06.06-.1.09-.06z" fill="#263238"/><path d="m203.78 153.56c.35.68.73 1.36 1.04 2.06.13.29.25.58.38.87-.53-2.5-1.04-4.99-1.55-7.49-.01-.03.04-.04.05-.01 1.06 4.05 2.12 8.09 3.1 12.16.94 3.88 2.06 7.8 2.6 11.76.32-.11 2.11-.85 2.16-.73s-2.34 1.25-2.38 1.15c-1.3-3.86-2.11-8.26-3-12.23-.25-1.12-.48-2.24-.72-3.37-.26-.68-.57-1.33-.88-1.98-.33-.7-.59-1.42-.87-2.14-.02-.06.05-.1.07-.05z" fill="#263238"/><path d="m209.89 169.15c3.2-1.81 16.57-8.73 19.57-10.03.21-.09.32.02.11.14-9.46 5.64-16.37 8.4-19.6 10.02-.09.03-.17-.08-.08-.13z" fill="#263238"/><path d="m576.32 432.05h-304.68l44.05-249.85h304.68z" fill="#ffc727"/><path d="m419.97 156.32h-99.71l-4.57 25.88h106.71z" fill="#ffc727"/><g opacity=".1"><path d="m576.32 432.05h-304.68l44.05-249.85h304.68z"/><path d="m419.97 156.32h-99.71l-4.57 25.88h106.71z"/></g><path d="m309.5 166.88c-.39-1.45-.48-2.9-.5-4.35.01-1.45.1-2.9.5-4.35.4 1.45.49 2.9.5 4.35-.02 1.45-.11 2.9-.5 4.35z" fill="#263238"/><path d="m300.64 169.44c-1.07-1.06-1.87-2.27-2.61-3.52-.71-1.26-1.36-2.56-1.74-4.02 1.07 1.06 1.87 2.27 2.61 3.52.7 1.27 1.35 2.57 1.74 4.02z" fill="#263238"/><path d="m294.24 176.09c-1.45-.38-2.75-1.03-4.02-1.74-1.25-.74-2.46-1.54-3.52-2.61 1.45.38 2.75 1.03 4.02 1.74 1.25.74 2.46 1.55 3.52 2.61z" fill="#263238"/><path d="m292.03 185.05c-1.45.39-2.9.48-4.35.5-1.45-.01-2.9-.1-4.35-.5 1.45-.4 2.9-.49 4.35-.5 1.45.01 2.9.1 4.35.5z" fill="#263238"/><path d="m294.6 193.91c-1.06 1.07-2.27 1.87-3.52 2.61-1.26.71-2.56 1.36-4.02 1.74 1.06-1.07 2.27-1.87 3.52-2.61 1.26-.71 2.56-1.36 4.02-1.74z" fill="#263238"/><path d="m301.24 200.3c-.38 1.45-1.03 2.75-1.74 4.02-.74 1.25-1.54 2.46-2.61 3.52.38-1.45 1.03-2.75 1.74-4.02.75-1.25 1.55-2.46 2.61-3.52z" fill="#263238"/><path d="m310.2 202.51c.39 1.45.48 2.9.5 4.35-.01 1.45-.1 2.9-.5 4.35-.4-1.45-.49-2.9-.5-4.35.02-1.45.1-2.9.5-4.35z" fill="#263238"/><path d="m319.06 199.95c1.07 1.06 1.87 2.27 2.61 3.52.71 1.26 1.36 2.56 1.74 4.02-1.07-1.06-1.87-2.27-2.61-3.52-.71-1.27-1.36-2.57-1.74-4.02z" fill="#263238"/><path d="m325.45 193.3c1.45.38 2.75 1.03 4.02 1.74 1.25.74 2.46 1.54 3.52 2.61-1.45-.38-2.75-1.03-4.02-1.74-1.25-.74-2.46-1.54-3.52-2.61z" fill="#263238"/><path d="m327.66 184.34c1.45-.39 2.9-.48 4.35-.5 1.45.01 2.9.1 4.35.5-1.45.4-2.9.49-4.35.5-1.45-.01-2.9-.1-4.35-.5z" fill="#263238"/><path d="m325.1 175.48c1.06-1.07 2.27-1.87 3.52-2.61 1.26-.71 2.56-1.36 4.02-1.74-1.06 1.07-2.27 1.87-3.52 2.61-1.27.71-2.57 1.36-4.02 1.74z" fill="#263238"/><path d="m318.45 169.09c.38-1.45 1.03-2.75 1.74-4.02.74-1.25 1.54-2.46 2.61-3.52-.38 1.45-1.03 2.75-1.74 4.02-.74 1.25-1.54 2.46-2.61 3.52z" fill="#263238"/><path d="m575.87 432.05h-305.34l-43.35-240.78h305.34z" fill="#ffc727"/><circle cx="332.99" cy="325.77" fill="#263238" r="12.69"/><circle cx="433.31" cy="325.77" fill="#263238" r="12.69"/><path d="m401.38 340.49-.7-1.33c-.06-.12-6.62-12.24-19.81-12.24-12.03 0-14.96 11.41-15.08 11.9l-.36 1.45-2.91-.7.35-1.46c.03-.14 3.57-14.19 18-14.19 15.04 0 22.17 13.28 22.47 13.85l.7 1.33z" fill="#263238"/><path d="m555.61 324.31c.65-.14 1.3-.29 1.95-.46" fill="none" stroke="#263238" stroke-miterlimit="10"/><path d="m561.39 322.72c15.3-5.17 28.11-17.2 29.31-31.26 2.66-31-35.1-48.12-31.2-83.95 3.72-34.17 39.56-36.61 53.93-31.89 15.87 5.22 10.43 20.47-3.94 18.5-24.91-3.41-40.57-30.49-28.74-61.21 8.84-22.95 30.87-31.61 39.82-34.25" fill="none" stroke="#263238" stroke-dasharray="4.0037 4.0037" stroke-miterlimit="10"/><path d="m622.52 98.14c1.24-.32 1.94-.45 1.94-.45" fill="none" stroke="#263238" stroke-miterlimit="10"/><path d="m640.32 92.16c-2.55-7.9-19.63-5.06-16.3 5.26 3.34 10.33 18.85 2.65 16.3-5.26z" fill="#263238"/><path d="m614.73 88.98c.13-3.47 4.95-6.13 11.77-4.9s13.24 5.82 13.24 5.82-6.74 4.12-13.63 4.85c-6.89.72-11.51-2.29-11.38-5.77z" fill="#ebebeb"/><path d="m639.73 89.9c-3.54.02-7.07-.09-10.61-.2-3.53-.15-7.07-.29-10.59-.58 3.54-.03 7.07.09 10.61.2 3.53.15 7.07.29 10.59.58z" fill="#263238"/><path d="m621.58 85.91c1.02.46 1.97 1.04 2.92 1.61.93.61 1.87 1.21 2.73 1.93-1.02-.46-1.97-1.04-2.92-1.61-.93-.61-1.87-1.21-2.73-1.93z" fill="#263238"/><path d="m630.85 89.57c-.9.76-1.87 1.4-2.84 2.05-.99.61-1.98 1.23-3.04 1.73.9-.76 1.87-1.4 2.84-2.05.99-.61 1.98-1.23 3.04-1.73z" fill="#263238"/><path d="m631.88 87.62c.53.23.97.57 1.41.9.42.36.84.72 1.18 1.19-.53-.23-.97-.57-1.41-.9-.42-.37-.85-.72-1.18-1.19z" fill="#263238"/><path d="m621.23 109.55c2.13 2.74 7.6 2.08 12.41-2.9s7.33-12.46 7.33-12.46-7.88.6-13.89 4.04c-6.01 3.43-7.99 8.57-5.85 11.32z" fill="#ebebeb"/><path d="m640.97 94.18c-2.89 2.05-5.68 4.21-8.49 6.37-2.78 2.19-5.56 4.37-8.26 6.66 2.89-2.05 5.68-4.21 8.49-6.37 2.78-2.18 5.57-4.36 8.26-6.66z" fill="#263238"/><path d="m628.58 108.03c.56-.97.99-2 1.43-3.02.4-1.04.81-2.07 1.08-3.16-.56.97-.99 2-1.43 3.02-.4 1.04-.8 2.08-1.08 3.16z" fill="#263238"/><path d="m633.95 99.64c-1.17-.09-2.34-.04-3.5 0-1.16.08-2.33.15-3.48.37 1.17.09 2.34.04 3.5 0 1.17-.08 2.33-.15 3.48-.37z" fill="#263238"/><path d="m635.93 100.63c.3-.49.45-1.02.62-1.55.13-.54.26-1.08.26-1.65-.3.49-.45 1.02-.62 1.55-.13.53-.26 1.07-.26 1.65z" fill="#263238"/><path d="m640.32 92.16c-1.57.51-3.26-.36-3.77-1.93s.36-3.26 1.93-3.77 3.26.36 3.77 1.93c.51 1.58-.36 3.27-1.93 3.77z" fill="#455a64"/><path d="m642.16 97.87c-1.57.51-3.26-.36-3.77-1.93s.36-3.26 1.93-3.77 3.26.36 3.77 1.93-.36 3.26-1.93 3.77z" fill="#455a64"/><path d="m314.31 95.32c-1.43 13.69-13.7 23.63-27.38 22.2-5.53-.58-10.45-2.93-14.26-6.43l-12.47 1.83 6.24-10.78c-1.51-3.68-2.15-7.78-1.71-12 1.43-13.69 13.7-23.63 27.38-22.2 13.69 1.43 23.64 13.69 22.2 27.38z" fill="#fff"/><path d="m314.31 95.32c-.52 4.55-2.18 9.01-5.03 12.63-.65.95-1.5 1.74-2.26 2.6-.87.75-1.67 1.58-2.63 2.23-1.82 1.4-3.87 2.5-6.01 3.35-2.13.9-4.42 1.32-6.71 1.6-1.15.06-2.31.17-3.46.07-1.16-.03-2.31-.15-3.45-.36-4.56-.83-8.88-2.96-12.33-6.09l.29.09-12.46 1.91-.9.14.46-.8 6.2-10.8-.03.43c-3.02-7.11-2.34-15.59 1.54-22.21 1.93-3.32 4.63-6.18 7.81-8.31 3.18-2.14 6.86-3.48 10.64-3.99 3.78-.5 7.66-.16 11.27 1.04 3.6 1.21 6.91 3.25 9.61 5.89 5.5 5.23 8.26 13.08 7.45 20.58zm0 0c.76-7.51-2.06-15.31-7.57-20.47-2.73-2.58-6.04-4.54-9.61-5.67-3.58-1.12-7.4-1.39-11.09-.83-3.68.57-7.25 1.94-10.29 4.07-3.04 2.14-5.6 4.93-7.46 8.13-1.89 3.2-2.87 6.87-3.16 10.55-.23 3.69.37 7.43 1.75 10.86l.09.22-.12.2-6.28 10.76-.45-.66 12.48-1.75.17-.02.12.12c3.3 3.1 7.47 5.26 11.93 6.15 1.11.22 2.24.37 3.38.41 1.14.12 2.27.04 3.41-.01 2.26-.23 4.53-.61 6.66-1.47 2.13-.8 4.2-1.85 6.01-3.24.96-.63 1.76-1.45 2.63-2.2.77-.85 1.61-1.63 2.27-2.57 2.89-3.59 4.58-8.03 5.13-12.58z" fill="#263238"/><path d="m277.34 104.35c0-1.49 1.03-2.56 2.44-2.56 1.49 0 2.44 1.07 2.44 2.56 0 1.45-.95 2.56-2.44 2.56-1.45 0-2.44-1.11-2.44-2.56zm1.03-5.91-.58-19.84h3.97l-.58 19.84z" fill="#ffc727"/><path d="m286.85 104.35c0-1.49 1.03-2.56 2.44-2.56 1.49 0 2.44 1.07 2.44 2.56 0 1.45-.95 2.56-2.44 2.56-1.45 0-2.44-1.11-2.44-2.56zm1.03-5.91-.58-19.84h3.97l-.58 19.84z" fill="#ffc727"/><path d="m296.35 104.35c0-1.49 1.03-2.56 2.44-2.56 1.49 0 2.44 1.07 2.44 2.56 0 1.45-.95 2.56-2.44 2.56-1.45 0-2.44-1.11-2.44-2.56zm1.04-5.91-.58-19.84h3.97l-.58 19.84z" fill="#ffc727"/></svg>