<svg enable-background="new 0 0 2760 1840" viewBox="0 0 2760 1840" xmlns="http://www.w3.org/2000/svg"><path d="m0 0h2760v1840h-2760z" fill="#fff"/><path d="m2257.07 1659.06s169.74 40.24 253.3-142.13c108.41-236.6-43.74-461.35-306.2-477.54-378.54-23.35-168.75-627.71-766.09-463.73-167.96 46.11-533.29-191.92-748.34 211.39-36.57 68.58-145.88 65.21-291.53 182.21-256.92 206.38-164.43 691.99 52.04 694.2 216.47 2.2 1806.82-4.4 1806.82-4.4z" fill="#fcecdb"/><path d="m488.09 1662.58s7.89-51.7 108.57-65.61 194.3-125.43 360.34-109.25c166.04 16.19 303.81 117.75 492.81 86.63s307.35 8.55 349.74 39.83 217.84-7.34 230.8 49.98z" fill="#a8d29f"/><path d="m901.96 430.58s-113.63-5.56-53.35 340.77c0 0 40.55 117.56-10.64 193.33h753.6v-534.1z" fill="#afcdfb"/><path d="m979.36 1331s-52.65-61.42-3.25-100.44c0 0 36.08-21.85 65.51-20.07 0 0-41.69 69.91-28.2 76.87 13.49 6.95 40.84-81.25 40.84-81.25s82.12-7.96 108.53 4.74c0 0-70.2 57.45-55.42 60.87 14.79 3.42 90.61-52.97 90.61-52.97s76.43 13.01 72.35 59.63-30.41 61.02-41.98 59.78c-11.58-1.24-79.28-27.08-80.76-17.6-1.47 9.48 39.28 40.48 67.82 41.93 0 0-53.88 59.42-89.69 42.27s-38.87-44.34-61.19-54.53c-22.32-10.2-41.38-10.17-32.16.23s49.62 20.51 62.38 43.09c12.77 22.58 24.22 37.81-12.83 32.24s-97.28-32.68-99.92-63.73c-2.64-31.06-2.64-31.06-2.64-31.06z" fill="#599dad"/><path d="m1232.79 1279.63s-207.58-8-253.43 51.37c0 0-10.14 30.36-41.34 58.01l-4.86 13.25s35.97-37.93 48.84-40.22c0 0-20.13-73.55 250.79-82.41z" fill="#599dad"/><path d="m938.02 1389.01s-44.56 32.95-47.65 91.83l8.09.72s14.23-60.88 39.95-84.69c25.72-23.8-.39-7.86-.39-7.86z" fill="#599dad"/><path d="m795.28 1253.75s83.75-46.9 44.67-110.55c0 0-31.27-39.08-64.77-49.13 0 0 17.87 94.92 0 97.15s-12.28-107.2-12.28-107.2-88.22-42.43-122.83-39.08c0 0 54.72 92.68 36.85 90.45s-79.28-96.03-79.28-96.03-90.45-16.75-104.97 36.85 8.93 80.4 22.33 83.75 99.38 2.23 97.15 13.4-60.3 29.03-92.68 18.98c0 0 35.73 88.22 82.63 83.75s61.42-33.5 90.45-35.73 50.25 5.58 35.73 13.4-63.65 2.56-87.1 22.5-42.43 32.22 1.12 41.15 121.72 3.35 137.35-30.15 15.63-33.51 15.63-33.51z" fill="#6bb7bf"/><path d="m533.99 1092.95s234.5 75.93 261.3 160.8c0 0-1.12 37.97 22.33 81.52v16.75s-24.57-56.95-37.97-64.77c0 0 52.48-73.7-245.66-194.3z" fill="#6bb7bf"/><path d="m817.62 1335.27s36.16 54.92 15.55 121.76l-9.3-2.5s9.03-73.63-9.89-110.66c-18.93-37.03 3.64-8.6 3.64-8.6z" fill="#6bb7bf"/><path d="m928.52 1189.07s-110.4-61.82-58.88-145.72c0 0 41.21-51.52 85.37-64.77 0 0-23.55 125.12 0 128.06s16.19-141.31 16.19-141.31 116.29-55.93 161.92-51.52c0 0-72.13 122.17-48.58 119.23s104.51-126.59 104.51-126.59 119.23-22.08 138.37 48.58c19.13 70.66-11.78 105.98-29.44 110.4s-131 2.94-128.06 17.66 79.49 38.27 122.17 25.02c0 0-47.1 116.28-108.93 110.4-61.82-5.89-80.96-44.16-119.23-47.1s-66.24 7.36-47.1 17.66c19.13 10.3 83.9 3.38 114.81 29.66s55.93 42.47-1.47 54.25c-57.41 11.78-160.45 4.42-181.05-39.74-20.6-44.17-20.6-44.17-20.6-44.17z" fill="#86d1cd"/><path d="m1272.96 977.11s-309.11 100.09-344.44 211.96c0 0 1.47 50.05-29.44 107.45v22.08s32.38-75.07 50.05-85.38c0 .01-69.18-97.14 323.83-256.11z" fill="#6bb7bf"/><path d="m899.08 1296.52s-47.67 72.39-20.5 160.51l12.26-3.29s-11.91-97.06 13.04-145.87c24.95-48.82-4.8-11.35-4.8-11.35z" fill="#6bb7bf"/><path d="m924.8 1648.12c119.43 0 216.25-96.82 216.25-216.25h-432.5c0 119.43 96.82 216.25 216.25 216.25z" fill="#efcbab"/><path d="m978.02 1646.47c-8.8 1.1-17.76 1.65-26.87 1.65-119.43 0-216.24-96.82-216.24-216.25h53.72c0 110.34 82.63 201.37 189.39 214.6z" fill="#ffebdc"/><path d="m1144.04 1659.13h-438.47c0-14.74 11.94-26.68 26.68-26.68h385.12c14.73 0 26.67 11.94 26.67 26.68z" fill="#efcbab"/><path d="m701.44 1431.87h444.53v6.63h-444.53z" fill="#efcdaf"/><path d="m1707.32 609.63s-37.88-71.48 18.88-98.7c0 0 40-13.39 68.32-5.2 0 0-56.02 59.06-44.39 68.8 11.63 9.75 57.68-70.31 57.68-70.31s81.86 10.25 104.85 28.44c0 0-81.1 40.64-67.42 47.22 13.67 6.58 100.03-31.79 100.03-31.79s71.71 29.47 57.5 74.06-43.06 52.86-54.08 49.11-71.4-43.83-74.92-34.9 29.44 48.11 56.96 55.79c0 0-65.61 46.15-96.79 21.55-31.17-24.59-28.19-51.79-47.73-66.63-19.54-14.85-38.14-19-31.43-6.84 6.71 12.17 43.91 30.9 51.41 55.73s15.33 42.2-19.59 28.63-87.73-53.24-83.49-84.11c4.21-30.85 4.21-30.85 4.21-30.85z" fill="#599dad"/><path d="m1965.84 615.14s-200.77-53.37-258.52-5.51c0 0-16.56 27.4-53.06 47.53l-7.65 11.86s43.42-29.11 56.48-28.52c0 0-3.5-76.17 262.75-25.36z" fill="#599dad"/><path d="m1654.26 657.16s-50.7 22.37-66.65 79.13l7.73 2.48s27.25-56.27 57.56-73.85c30.33-17.58 1.36-7.76 1.36-7.76z" fill="#599dad"/><path d="m1457.89 480.7s-112.19-58.51-63.19-143.91c0 0 39.66-52.72 83.41-67.28 0 0-19.82 125.76 3.81 128s11.98-141.73 11.98-141.73 114.57-59.37 160.31-56.32c0 0-68.46 124.27-45 120.62 23.45-3.64 100.69-129.64 100.69-129.64s118.52-25.62 139.75 44.43-8.62 106.29-26.14 111.22c-17.52 4.94-130.86 6.84-127.48 21.47s80.59 35.89 122.86 21.38c0 0-43.62 117.64-105.59 113.59-61.97-4.04-82.24-41.73-120.58-43.53s-65.99 9.33-46.56 19.06 83.96.88 115.64 26.22c31.68 25.35 57.17 40.79.14 54.27s-160.24 9.19-182.16-34.33c-21.89-43.52-21.89-43.52-21.89-43.52z" fill="#86d1cd"/><path d="m1795.87 258.58s-306 109.25-337.98 222.12c0 0 2.96 49.98-26.23 108.28l.66 22.07s30.13-76 47.48-86.83c0 .01-72.04-95.04 316.07-265.64z" fill="#6bb7bf"/><path d="m1431.66 588.99s-45.49 73.78-15.71 161.05l12.16-3.66s-14.79-96.66 8.69-146.19c23.48-49.54-5.14-11.2-5.14-11.2z" fill="#6bb7bf"/><path d="m949.74 635.58h786.78v1026.07h-786.78z" fill="#9abcef"/><path d="m975.47 635.58h773.56v1026.07h-773.56z" fill="#e9f3fe"/><path d="m2294.47 1659.13h-155.88c-8.35-7.09 5.78-23.18 20.55-24.26 6.41-.48 14.52.86 23.79 2.82 2.14-28.49 14.39-156.57 60.56-151.42 51.91 5.76 0 56.4-14.67 86.39-10.87 22.21-22.34 54.05-27.58 69.08 4.21.91 8.58 1.81 13.03 2.63 6.88-21.13 32.48-92.19 65.04-88.05 38.22 4.85 22.86 33.34-4.23 50.25-19.88 12.44-44.28 30.11-55.88 38.65 9.83 1.6 20.08 2.68 30.49 2.44 26.7-.63 39.73 7.24 44.78 11.47z" fill="#a8d29f"/><path d="m1749.03 635.56c-.01.01-.01.01-.01.01h-773.56c4.28-58.5-2.17-100.97-12.5-131.52-19.84-58.74-54.03-73.47-54.03-73.47h729.54c62.27 0 110.55 37.51 123.69 87.3.49 1.87.95 3.74 1.34 5.6 12.48 56.97-13.96 111.04-14.47 112.08z" fill="#e9f3fe"/><path d="m1749.03 635.56c-.01.01-.01.01-.01.01h-773.56c4.28-58.5-2.17-100.97-12.5-131.52 79.05 14.48 274.85 45.32 484.42 40.13 135.58-3.36 242.72-12.43 316.12-20.69 12.48 56.96-13.96 111.03-14.47 112.07z" fill="#d8e8fd"/><path d="m1544.68 872.17h-410.23c-4.21 0-7.66-3.45-7.66-7.66v-3.93c0-4.21 3.45-7.66 7.66-7.66h410.23c4.21 0 7.66 3.45 7.66 7.66v3.93c0 4.22-3.45 7.66-7.66 7.66z" fill="#bbd5fc"/><path d="m1385.91 904.55h-253.07c-3.32 0-6.04-2.72-6.04-6.04v-7.15c0-3.33 2.72-6.04 6.04-6.04h253.07c3.32 0 6.04 2.72 6.04 6.04v7.15c0 3.32-2.72 6.04-6.04 6.04z" fill="#bbd5fc"/><path d="m1087.28 901.43v-39.3h-5.19c-3.15 0-4.72-1.31-4.72-3.93 0-1.89 1.23-3.22 3.7-4.01 1.26-.42 3.26-.73 6.01-.94s4.96-.31 6.64-.31c1.62 0 2.65.33 3.07.98.42.66.63 2.32.63 4.99v42.53h5.35c3.46 0 5.19 1.49 5.19 4.48 0 3.14-1.73 4.72-5.19 4.72h-21.54c-1.52 0-2.79-.41-3.81-1.22s-1.53-1.95-1.53-3.42c0-3.04 1.76-4.56 5.27-4.56h6.12z" fill="#bbd5fc"/><g fill="#d2e4fd"><path d="m1544.68 1074.82h-410.23c-4.21 0-7.66-3.45-7.66-7.66v-3.93c0-4.21 3.45-7.66 7.66-7.66h410.23c4.21 0 7.66 3.45 7.66 7.66v3.93c0 4.22-3.45 7.66-7.66 7.66z"/><path d="m1385.91 1107.2h-253.07c-3.32 0-6.04-2.72-6.04-6.04v-7.16c0-3.32 2.72-6.04 6.04-6.04h253.07c3.32 0 6.04 2.72 6.04 6.04v7.15c0 3.33-2.72 6.05-6.04 6.05z"/><path d="m1108.77 1103.27c0 2.62-1.83 3.93-5.49 3.93h-22.79c-3.29 0-4.93-1.32-4.93-3.96 0-.83.44-1.81 1.32-2.92 1.29-1.48 3.19-3.71 5.7-6.67 3.8-4.77 6.97-8.89 9.52-12.37.88-1.16 2.13-2.92 3.75-5.28 1.34-2.36 2.01-4.35 2.01-5.97 0-1.81-.58-3.3-1.74-4.48s-2.64-1.77-4.45-1.77c-1.76 0-3.29.55-4.59 1.67-.88.74-1.58 2.13-2.08 4.17-.65 2.64-1.07 4.17-1.25 4.58-.69 1.48-1.83 2.22-3.4 2.22-1.39 0-2.48-.51-3.27-1.53-.74-.88-1.11-2.04-1.11-3.47 0-1.62.25-3.27.76-4.93 1.11-3.57 3.08-6.3 5.9-8.2 2.69-1.81 5.95-2.71 9.8-2.71 4.21 0 7.73 1.28 10.56 3.83 2.92 2.69 4.38 6.12 4.38 10.3 0 3.11-1.04 6.31-3.13 9.6-1.16 1.81-3.54 5.01-7.16 9.6-1.85 2.37-4.77 5.8-8.75 10.3h15.01c3.62 0 5.43 1.35 5.43 4.06z"/><path d="m1544.68 1243.87h-410.23c-4.21 0-7.66-3.45-7.66-7.66v-3.93c0-4.21 3.45-7.66 7.66-7.66h410.23c4.21 0 7.66 3.45 7.66 7.66v3.93c0 4.21-3.45 7.66-7.66 7.66z"/><path d="m1385.91 1276.24h-253.07c-3.32 0-6.04-2.72-6.04-6.04v-7.15c0-3.32 2.72-6.04 6.04-6.04h253.07c3.32 0 6.04 2.72 6.04 6.04v7.15c0 3.32-2.72 6.04-6.04 6.04z"/><path d="m1108.77 1260.12c0 4.92-1.73 8.88-5.18 11.86-3.27 2.84-7.41 4.26-12.43 4.26-3.88 0-7.2-.92-9.94-2.77-4.36-2.93-6.53-6.46-6.53-10.58 0-1.18.38-2.2 1.14-3.05s1.73-1.28 2.91-1.28c1.23 0 2.39.83 3.48 2.49 1.75 2.75 2.77 4.26 3.05 4.55 1.56 1.66 3.57 2.48 6.04 2.48 3.31 0 5.68-1.23 7.1-3.69.66-1.23.99-2.79.99-4.69 0-4.64-2.72-7.22-8.17-7.74-3.08-.28-4.62-1.58-4.62-3.91 0-1.7.89-2.91 2.68-3.62 3.34-1.23 5.03-1.87 5.08-1.92 1.79-1.18 2.68-3.24 2.68-6.18 0-1.75-.52-3.13-1.56-4.15s-2.43-1.53-4.18-1.53c-2.17 0-3.87.52-5.09 1.56-1.04.9-1.91 2.44-2.62 4.62-.57 1.66-1.65 2.49-3.25 2.49-1.13 0-2.07-.5-2.8-1.49-.73-1-1.1-2.08-1.1-3.27 0-1.47.4-2.94 1.21-4.4 1.33-2.46 3.36-4.38 6.11-5.75 2.51-1.28 5.25-1.92 8.24-1.92 4.02 0 7.37 1.22 10.05 3.66 2.67 2.44 4.01 5.65 4.01 9.62 0 4.78-1.99 8.57-5.96 11.36 5.77 2.32 8.66 6.65 8.66 12.99z"/></g><path d="m1496.9 703.72h-255.55c-4.37 0-7.95-3.58-7.95-7.96v-6.45c0-4.37 3.58-7.95 7.95-7.95h255.55c4.38 0 7.95 3.58 7.95 7.95v6.45c0 4.39-3.58 7.96-7.95 7.96z" fill="#bbd5fc"/><path d="m1563.54 738.19h-388.83c-5.37 0-9.75-4.39-9.75-9.75v-2.84c0-5.37 4.39-9.76 9.75-9.76h388.83c5.37 0 9.76 4.39 9.76 9.76v2.84c-.01 5.36-4.4 9.75-9.76 9.75z" fill="#bbd5fc"/><path d="m1339.15 975.93c-84.27 0-164.24-10.57-223.85-25.69-60.23-15.27-92.67-40.23-92.67-62.37 0-20.06 26.44-38.52 76.46-53.36-47.94 14.23-73.57 35.12-73.57 53.36 0 20.24 33.23 40.28 91.17 54.97 59.41 15.06 138.41 23.36 222.46 23.36s163.06-8.29 222.46-23.36c57.94-14.69 91.17-34.72 91.17-54.97 0-21.43-34.99-48.08-91.32-69.52-64.05-24.39-143-33.44-222.31-33.44-148.9 0-210.2 17.38-263.38 39.17 53.41-21.88 113.95-46.67 263.38-46.67 79.63 0 158.93 13.49 223.27 38 57.52 21.9 93.25 49.67 93.25 72.47 0 22.14-33.17 42.74-93.4 58.01-59.61 15.11-138.85 30.04-223.12 30.04z" fill="#c65447"/><path d="m1850.88 1173.48s-2.77 26.98-5.82 32.08c-3.04 5.1-16.01 21.41-21.53 24.61s3.37-21.48 2.25-26.29c-1.13-4.8-4.55 8.77-6.98 9.08s-1.81-11.89-1.89-16.34c-.09-4.44 11.84-15.42 16.05-24.88 4.19-9.45 17.92 1.74 17.92 1.74z" fill="#ffb27d"/><path d="m1519.44 924.67-6.2-11.7s3.08-20.85-23.04-34.03c0 0-9.55-3.89-14.93 3.9-4.96 7.17 9.46 5.88 8.69 18.14-.77 12.27 5.05 19.47 13.16 23.46l6.7 7.76z" fill="#ffb27d"/><path d="m1766.28 896.7s-22.43 110.09-145.87 146.06c-38.53 11.23-126.07-115.63-126.07-115.63s3.08-11.69 22.36-9.01c0 0 85.23 56.43 95.96 62.56 9.52 5.44 72.14-69.92 100.68-82.08 28.56-12.14 52.94-1.9 52.94-1.9z" fill="#e58638"/><path d="m1481.86 837.26h23.06v115.97h-23.06z" fill="#c65447" transform="matrix(.1518 -.9884 .9884 .1518 381.8056 2235.4199)"/><path d="m1409.42 882.35 24.9 15.49 3.5-22.79z" fill="#ffb27d"/><path d="m1564.62 902.26-1.11 7.21c-.68 4.43-4.83 7.47-9.26 6.79l-5.3-.81 3.5-22.79 5.77.89c4.17.63 7.04 4.54 6.4 8.71z" fill="#ffb27d"/><path d="m1913.65 1588.79s15.31 13.97 12.33 23.9c-2.99 9.93-16.81 16.55-18.67 28.68-1.87 12.14-9.34 18.76-16.06 18.76s-32.05 0-32.05 0-4.95-8.54 7-11.11 16.46-16.83 15.71-30.07 1.12-30.89 1.12-30.89l25.4-5.88z" fill="#233862"/><path d="m1725.79 1624.93s2.75 31.8-3.97 35.11l-86.04-.18s0-9.93 13.82-12.14 38.1-10.3 42.2-28.32c4.11-18.01 33.99 5.53 33.99 5.53z" fill="#233862"/><path d="m1653.15 1175.67s4.54 55.75 9.87 122.76c7.25 91.03 15.97 202.85 16.83 224.03 1.49 36.78 7.47 95.62 7.47 95.62s14.19 13.98 42.58 8.09c0 0 25.3-83.99 32.53-172.86.11-1.46.22-2.92.34-4.39 6.72-90.47 17.18-280.97 17.18-280.97z" fill="#2b478b"/><path d="m1653.15 1175.67s4.54 55.75 9.87 122.76l99.41 154.88c.11-1.46.22-2.92.34-4.39 6.72-90.47 17.18-280.97 17.18-280.97z" fill="#233862"/><path d="m1673.87 1182.29s81.79 201.9 135.58 296.78c53.78 94.88 70.59 121.36 70.59 121.36s30.81-12.14 33.61-20.41c0 0-20.57-183.17-56.58-227.83-20.35-25.23-44.26-100.95-45.38-127.43s-7.28-78.88-7.28-78.88z" fill="#2b478b"/><path d="m1781.49 871.15s-55.34 26.7-87.25 16.79c0 0 7.85-9.91 21.6-17.28-1.1-6.4-1.96-11.96-2.46-16.67-1.35-10.88-1.35-17.04-1.35-17.04l21.35-16.8 20.25-16.07c-1.59 45.2 27.86 67.07 27.86 67.07z" fill="#ffb27d"/><path d="m1810.65 1156.23c.12 3.38-7.12 7.25-10.31 8.7-23.68 10.39-45.77 17.64-70.8 20.06-29.57 3.02-64.55-3.63-76.57-3.38-1.23 0-2.33-.48-3.31-1.33-.86-.61-1.47-36.25-.86-81.08 0-1.81 0-3.63.12-5.44v-.6c.25-17.52.86-35.89 1.72-54.25 1.72-40.36 4.91-79.27 10.31-100.77 6.5-25.37 21.23-42.17 34.6-54.37l11.04-9.67c11.04 2.18 22.7 1.57 34.36-4.11 12.76-6.16 26.5-12.81 28.71-11.12 16.69 12.2 27.98 39.63 33.99 74.67 3.44 20.18 5.16 42.77 5.03 66.45 0 8.7-.25 17.64-.74 26.46-2.94 47.85 0 89.41 1.72 113.46.5 7.01.87 12.45.99 16.32z" fill="#ee9849"/><path d="m1809.67 1154.03c-193.8-.39-35.74-210.29-35.74-210.29l31.4-10.2c2.48 21.56 3.73 45.7 3.64 71 0 9.3-.18 18.85-.53 28.27-2.14 51.12-.01 95.53 1.23 121.22z" fill="#e58638"/><path d="m1754 821.37s-13.99 25.49-40.62 32.62c-1.35-10.88-1.35-17.04-1.35-17.04l21.35-16.8z" fill="#ed985f"/><path d="m1702.3 836.22s52.8 8.64 57.75-23.82c4.96-32.46 15.11-53.2-18.39-60.09s-41.96 4.53-46.29 14.96-6.68 65.87 6.93 68.95z" fill="#ffb27d"/><path d="m1779.24 748.43c.48-.55 1.58-.99 4.04-1.13 0 0-1.97-1.23-4.59-1.29-.52-3.42-2.33-9.48-8.22-10.95 0 0 3.16 1.69 3.58 5.32-6.82-7-21.43-12.1-61.89-8.91-53.32 4.21-35.75 38.35-28.85 42.42s24.28-7.09 37.14-6.07 15.31 19.61 19.67 22.16 2.65-1.96 8.55-4.63 6.47 7.11 4.76 13.47 6.41 14.75 6.41 14.75 0 0 8.2-8.83 15.92-46.22 12.2-54.19c-.34-.69-.67-1.41-1-2.12z" fill="#2c3a64"/><path d="m1769.64 858.6s33.4 15.82 49.42 40.14c24.84 37.72 53.64 175.19 54.17 187.92s-21.02 102.6-21.02 102.6-21.86-1.44-27.5-12.47c0 0 4.37-92.34 1.6-98.28s-91.12-123.87-81.19-149.04c9.95-25.16 24.52-70.87 24.52-70.87z" fill="#ee9849"/><path d="m1513.13 912.41s1.82-7.17-3.16-10.4-9.56-12-11.66-10.81c-4.35 2.46 2.38 10.12 1.15 19.66-.43 3.35 7.35 12.11 13.67 1.55z" fill="#ffb27d"/><path d="m701.44 1591.94s-78.47-200.92-133.5-168.93c-55.02 32 133.5 168.93 133.5 168.93z" fill="#a8d29f"/><path d="m662.65 1591.94s-103.66-89.58-151.01-72.95c-47.35 16.64 151.01 72.95 151.01 72.95z" fill="#a8d29f"/><path d="m1760.22 1620.88s23.89-83.06 51.91-73.26c28.03 9.8-51.91 73.26-51.91 73.26z" fill="#a8d29f"/><path d="m1782.02 1616.35s60.98-40.03 74.38-27.66c13.4 12.38-74.38 27.66-74.38 27.66z" fill="#a8d29f"/><path d="m1573.63 1438.5h-475.67c-3.18 0-5.79-2.6-5.79-5.79 0-3.18 2.6-5.79 5.79-5.79h475.67c3.18 0 5.79 2.6 5.79 5.79 0 3.19-2.61 5.79-5.79 5.79z" fill="#d2e4fd"/><path d="m1573.63 1461.67h-475.67c-3.18 0-5.79-2.61-5.79-5.79 0-3.18 2.6-5.79 5.79-5.79h475.67c3.18 0 5.79 2.61 5.79 5.79 0 3.19-2.61 5.79-5.79 5.79z" fill="#d2e4fd"/><path d="m1573.63 1487.35h-475.67c-3.18 0-5.79-2.6-5.79-5.79 0-3.18 2.6-5.79 5.79-5.79h475.67c3.18 0 5.79 2.6 5.79 5.79 0 3.19-2.61 5.79-5.79 5.79z" fill="#d2e4fd"/><path d="m1511.18 1513.03h-413.61c-2.97 0-5.4-2.43-5.4-5.4v-.77c0-2.97 2.43-5.4 5.4-5.4h413.61c2.97 0 5.4 2.43 5.4 5.4v.77c.01 2.96-2.43 5.4-5.4 5.4z" fill="#d2e4fd"/><path d="m2578.96 1664.16h-2358.87c-1.26 0-2.3-1.03-2.3-2.3v-.43c0-1.26 1.04-2.3 2.3-2.3h2358.87c1.27 0 2.3 1.04 2.3 2.3v.43c0 1.27-1.03 2.3-2.3 2.3z" fill="#1c468a"/></svg>